HIERARCHY
ROOT reference
{
  OFFSET 0 0 0
  CHANNELS 6 Xposition Yposition Zposition Zrotation Xrotation Yrotation
  JOINT Hips
  {
    OFFSET 350.331 86.7696 215.823
    CHANNELS 3 Zrotation Xrotation Yrotation
    JOINT RightUpLeg
    {
      OFFSET -9.29271 -1.56052 -0.0234997
      CHANNELS 3 Zrotation Xrotation Yrotation
      JOINT RightLeg
      {
        OFFSET -0.0199852 -41.8973 0.0465042
        CHANNELS 3 Zrotation Xrotation Yrotation
        JOINT RightFoot
        {
          OFFSET -0.344404 -43.5008 0.46033
          CHANNELS 3 Zrotation Xrotation Yrotation
          End Site
          {
            OFFSET 0 -7.69 17.5
          }
        }
      }
    }
    JOINT LeftUpLeg
    {
      OFFSET 9.27671 -1.61046 0.00923455
      CHANNELS 3 Zrotation Xrotation Yrotation
      JOINT LeftLeg
      {
        OFFSET 0.0572944 -41.8832 0.025786
        CHANNELS 3 Zrotation Xrotation Yrotation
        JOINT LeftFoot
        {
          OFFSET 0.630082 -40.4663 0.064708
          CHANNELS 3 Zrotation Xrotation Yrotation
          End Site
          {
            OFFSET 0 -7.69 17.5
          }
        }
      }
    }
    JOINT Spine
    {
      OFFSET 0.0336257 14.3009 0.0467062
      CHANNELS 3 Zrotation Xrotation Yrotation
      JOINT Spine1
      {
        OFFSET 0.0295985 9.72711 0.0239471
        CHANNELS 3 Zrotation Xrotation Yrotation
        JOINT Spine2
        {
          OFFSET 0.0515174 10.1206 0.00128176
          CHANNELS 3 Zrotation Xrotation Yrotation
          JOINT Spine3
          {
            OFFSET 0.0546141 9.71668 0.0122483
            CHANNELS 3 Zrotation Xrotation Yrotation
            JOINT Neck
            {
              OFFSET 0.0872189 10.3831 0.0511468
              CHANNELS 3 Zrotation Xrotation Yrotation
              JOINT Head
              {
                OFFSET 0.0544 9.47189 0.0313815
                CHANNELS 3 Zrotation Xrotation Yrotation
                End Site
                {
                  OFFSET 0 15.95 0
                }
              }
            }
            JOINT RightShoulder
            {
              OFFSET -3.15364 6.93551 0.0260198
              CHANNELS 3 Zrotation Xrotation Yrotation
              JOINT RightArm
              {
                OFFSET -12.7567 0.0626665 0.0664987
                CHANNELS 3 Zrotation Xrotation Yrotation
                JOINT RightForeArm
                {
                  OFFSET -26.5087 -0.073346 0.274032
                  CHANNELS 3 Zrotation Xrotation Yrotation
                  JOINT RightHand
                  {
                    OFFSET -26.0005 -0.196673 0.105827
                    CHANNELS 3 Zrotation Xrotation Yrotation
                    JOINT RightHandThumb1
                    {
                      OFFSET -2.48905 0.190105 3.12053
                      CHANNELS 3 Zrotation Xrotation Yrotation
                      JOINT RightHandThumb2
                      {
                        OFFSET -3.68274 0 0
                        CHANNELS 3 Zrotation Xrotation Yrotation
                        JOINT RightHandThumb3
                        {
                          OFFSET -2.55832 0 0
                          CHANNELS 3 Zrotation Xrotation Yrotation
                          End Site
                          {
                            OFFSET -2.194 0 0
                          }
                        }
                      }
                    }
                    JOINT RightInHandIndex
                    {
                      OFFSET -3.22368 0.508421 1.97842
                      CHANNELS 3 Zrotation Xrotation Yrotation
                      JOINT RightHandIndex1
                      {
                        OFFSET -5.21684 -0.091368 0.999158
                        CHANNELS 3 Zrotation Xrotation Yrotation
                        JOINT RightHandIndex2
                        {
                          OFFSET -3.61937 0 0
                          CHANNELS 3 Zrotation Xrotation Yrotation
                          JOINT RightHandIndex3
                          {
                            OFFSET -2.0521 0 0
                            CHANNELS 3 Zrotation Xrotation Yrotation
                            End Site
                            {
                              OFFSET -1.805 0 0
                            }
                          }
                        }
                      }
                    }
                    JOINT RightInHandMiddle
                    {
                      OFFSET -3.38211 0.517263 0.756737
                      CHANNELS 3 Zrotation Xrotation Yrotation
                      JOINT RightHandMiddle1
                      {
                        OFFSET -5.17411 -0.084 0.313895
                        CHANNELS 3 Zrotation Xrotation Yrotation
                        JOINT RightHandMiddle2
                        {
                          OFFSET -3.94947 0 0
                          CHANNELS 3 Zrotation Xrotation Yrotation
                          JOINT RightHandMiddle3
                          {
                            OFFSET -2.47579 0 0
                            CHANNELS 3 Zrotation Xrotation Yrotation
                            End Site
                            {
                              OFFSET -1.975 0 0
                            }
                          }
                        }
                      }
                    }
                    JOINT RightInHandRing
                    {
                      OFFSET -3.36516 0.537895 -0.128947
                      CHANNELS 3 Zrotation Xrotation Yrotation
                      JOINT RightHandRing1
                      {
                        OFFSET -4.63474 -0.022105 -0.478947
                        CHANNELS 3 Zrotation Xrotation Yrotation
                        JOINT RightHandRing2
                        {
                          OFFSET -3.44238 0 0
                          CHANNELS 3 Zrotation Xrotation Yrotation
                          JOINT RightHandRing3
                          {
                            OFFSET -2.3881 0 0
                            CHANNELS 3 Zrotation Xrotation Yrotation
                            End Site
                            {
                              OFFSET -1.857 0 0
                            }
                          }
                        }
                      }
                    }
                    JOINT RightInHandPinky
                    {
                      OFFSET -3.16105 0.469368 -1.20179
                      CHANNELS 3 Zrotation Xrotation Yrotation
                      JOINT RightHandPinky1
                      {
                        OFFSET -4.14105 -0.022105 -1.09053
                        CHANNELS 3 Zrotation Xrotation Yrotation
                        JOINT RightHandPinky2
                        {
                          OFFSET -2.75653 0 0
                          CHANNELS 3 Zrotation Xrotation Yrotation
                          JOINT RightHandPinky3
                          {
                            OFFSET -1.74189 0 0
                            CHANNELS 3 Zrotation Xrotation Yrotation
                            End Site
                            {
                              OFFSET -1.645 0 0
                            }
                          }
                        }
                      }
                    }
                  }
                }
              }
            }
            JOINT LeftShoulder
            {
              OFFSET 3.27252 6.91581 -0.0198585
              CHANNELS 3 Zrotation Xrotation Yrotation
              JOINT LeftArm
              {
                OFFSET 12.8319 -0.0466028 -0.0574599
                CHANNELS 3 Zrotation Xrotation Yrotation
                JOINT LeftForeArm
                {
                  OFFSET 26.4942 -0.039105 -0.0936
                  CHANNELS 3 Zrotation Xrotation Yrotation
                  JOINT LeftHand
                  {
                    OFFSET 26.0008 0.022674 -0.016655
                    CHANNELS 3 Zrotation Xrotation Yrotation
                    JOINT LeftHandThumb1
                    {
                      OFFSET 2.48905 0.190105 3.12053
                      CHANNELS 3 Zrotation Xrotation Yrotation
                      JOINT LeftHandThumb2
                      {
                        OFFSET 3.68274 0 0
                        CHANNELS 3 Zrotation Xrotation Yrotation
                        JOINT LeftHandThumb3
                        {
                          OFFSET 2.55832 0 0
                          CHANNELS 3 Zrotation Xrotation Yrotation
                          End Site
                          {
                            OFFSET 2.194 0 0
                          }
                        }
                      }
                    }
                    JOINT LeftInHandIndex
                    {
                      OFFSET 3.22368 0.508421 1.97842
                      CHANNELS 3 Zrotation Xrotation Yrotation
                      JOINT LeftHandIndex1
                      {
                        OFFSET 5.21684 -0.091368 0.999158
                        CHANNELS 3 Zrotation Xrotation Yrotation
                        JOINT LeftHandIndex2
                        {
                          OFFSET 3.61937 0 0
                          CHANNELS 3 Zrotation Xrotation Yrotation
                          JOINT LeftHandIndex3
                          {
                            OFFSET 2.0521 0 0
                            CHANNELS 3 Zrotation Xrotation Yrotation
                            End Site
                            {
                              OFFSET 1.805 0 0
                            }
                          }
                        }
                      }
                    }
                    JOINT LeftInHandMiddle
                    {
                      OFFSET 3.38211 0.517263 0.756737
                      CHANNELS 3 Zrotation Xrotation Yrotation
                      JOINT LeftHandMiddle1
                      {
                        OFFSET 5.17411 -0.084 0.313895
                        CHANNELS 3 Zrotation Xrotation Yrotation
                        JOINT LeftHandMiddle2
                        {
                          OFFSET 3.94947 0 0
                          CHANNELS 3 Zrotation Xrotation Yrotation
                          JOINT LeftHandMiddle3
                          {
                            OFFSET 2.47579 0 0
                            CHANNELS 3 Zrotation Xrotation Yrotation
                            End Site
                            {
                              OFFSET 1.975 0 0
                            }
                          }
                        }
                      }
                    }
                    JOINT LeftInHandRing
                    {
                      OFFSET 3.36516 0.537895 -0.128947
                      CHANNELS 3 Zrotation Xrotation Yrotation
                      JOINT LeftHandRing1
                      {
                        OFFSET 4.63474 -0.022105 -0.478947
                        CHANNELS 3 Zrotation Xrotation Yrotation
                        JOINT LeftHandRing2
                        {
                          OFFSET 3.44238 0 0
                          CHANNELS 3 Zrotation Xrotation Yrotation
                          JOINT LeftHandRing3
                          {
                            OFFSET 2.3881 0 0
                            CHANNELS 3 Zrotation Xrotation Yrotation
                            End Site
                            {
                              OFFSET 1.857 0 0
                            }
                          }
                        }
                      }
                    }
                    JOINT LeftInHandPinky
                    {
                      OFFSET 3.16105 0.469368 -1.20179
                      CHANNELS 3 Zrotation Xrotation Yrotation
                      JOINT LeftHandPinky1
                      {
                        OFFSET 4.14105 -0.022105 -1.09053
                        CHANNELS 3 Zrotation Xrotation Yrotation
                        JOINT LeftHandPinky2
                        {
                          OFFSET 2.75653 0 0
                          CHANNELS 3 Zrotation Xrotation Yrotation
                          JOINT LeftHandPinky3
                          {
                            OFFSET 1.74189 0 0
                            CHANNELS 3 Zrotation Xrotation Yrotation
                            End Site
                            {
                              OFFSET 1.645 0 0
                            }
                          }
                        }
                      }
                    }
                  }
                }
              }
            }
          }
        }
      }
    }
  }
}
MOTION
Frames: 2
Frame Time: 0.00833333
7.500000000000000000e+02 0.000000000000000000e+00 0.000000000000000000e+00 0.000000000000000000e+00 0.000000000000000000e+00 0.000000000000000000e+00 4.091235114889547053e-01 -2.282171765363622651e+00 -1.032979550745425890e+01 1.429858928125838347e+01 6.367306399250171722e+00 1.053151290216293567e+01 -2.346569541722382635e+00 -3.136515841235805624e+00 4.042820771525206247e+00 -3.938027223871828575e+00 4.463740990108150619e+00 5.099862898215896223e+00 4.063477276389229065e-01 1.143780552276287565e+01 1.181281764092677156e+00 -6.645100606116141506e+00 2.232346551266803925e-01 7.081195813759848967e+00 1.643106663412446267e+00 -2.516206822388049158e+00 3.882514013410809373e+00 -1.306721462839351533e+00 -6.973959904506717322e+00 1.880912309211713263e+00 -3.701964155389046995e-01 -1.725805961108674902e+00 6.099669246798037348e-01 -6.045185272894422202e-01 -2.790250360625759818e+00 2.253696740410401633e-01 -1.229406975876452639e-02 -7.001386243250708186e-02 5.044506660952203791e-01 1.495958654299460733e-01 -7.161971242575546626e-01 2.452426435023132179e+00 -8.117242767290990813e-01 3.513896010732126651e+00 6.058924131637036581e+00 -3.821144131553575907e+00 9.163254329594143766e-01 -1.183627344335152376e+00 -1.908229378356233497e+01 -6.165088339395030204e+00 -5.951949816336211008e+00 -2.347721624861386758e+01 1.165321947219883247e+00 3.301245945453320729e+01 8.762475897103471079e-01 7.931337448856599082e+00 4.420287822955190293e+00 0.000000000000000000e+00 0.000000000000000000e+00 0.000000000000000000e+00 1.531409172334682422e-17 1.623526835305461885e-15 0.000000000000000000e+00 -7.089314353074401991e-16 1.272243906789316027e-15 0.000000000000000000e+00 7.466419034310014055e-16 -1.666636847507252862e-16 5.289542405410364775e-16 0.000000000000000000e+00 0.000000000000000000e+00 0.000000000000000000e+00 0.000000000000000000e+00 -6.887953647517326708e-16 -1.052503104840658456e-15 0.000000000000000000e+00 2.131549310025010757e-16 2.204065105503424635e-15 7.466419034310014055e-16 -1.666636847507252862e-16 5.289542405410364775e-16 0.000000000000000000e+00 5.629356817889815429e-16 -2.578783102110566883e-15 0.000000000000000000e+00 7.543416065496591226e-16 8.101585933450251308e-16 0.000000000000000000e+00 -9.473769197647882884e-16 4.895223985606400502e-15 7.466419034310014055e-16 -1.666636847507252862e-16 5.289542405410364775e-16 0.000000000000000000e+00 0.000000000000000000e+00 0.000000000000000000e+00 0.000000000000000000e+00 -2.033940570068097992e-15 -9.911862532488145035e-16 0.000000000000000000e+00 -9.009874056831633525e-16 4.314466976072791497e-15 7.466419034310014055e-16 -1.666636847507252862e-16 5.289542405410364775e-16 0.000000000000000000e+00 0.000000000000000000e+00 0.000000000000000000e+00 0.000000000000000000e+00 -2.392644959098098441e-16 -3.420776831908082283e-15 0.000000000000000000e+00 -6.042346960076395475e-16 1.326319231795332409e-15 -7.778970876323288763e+00 2.512666475084726514e+00 -1.563972233174802662e-01 -6.073290970786920928e-01 -1.227606840271229593e+01 -3.314415979585414451e+00 3.672389015736249007e+01 2.981883362296120943e+00 -1.066496781156836882e+01 -2.891419989232598464e+00 5.952836061700701009e+00 -7.491645834103923818e+00 0.000000000000000000e+00 0.000000000000000000e+00 0.000000000000000000e+00 2.572528143880727814e-15 -2.804306747030151486e-15 0.000000000000000000e+00 -5.012748385281676541e-16 -1.664955645526710136e-15 0.000000000000000000e+00 4.581923873851113041e-16 4.963148562848045662e-17 1.974100774737208077e-15 0.000000000000000000e+00 0.000000000000000000e+00 0.000000000000000000e+00 0.000000000000000000e+00 5.082335875253782687e-16 8.051904788172372647e-17 0.000000000000000000e+00 6.375453323282460761e-16 2.078623124693801836e-16 4.581923873851113041e-16 4.963148562848045662e-17 1.974100774737208077e-15 0.000000000000000000e+00 1.464708741805615956e-15 1.956176023821824497e-15 0.000000000000000000e+00 5.803171830395245004e-16 -9.025518018431154393e-16 0.000000000000000000e+00 1.278449373478803240e-15 7.726635938065569491e-16 4.581923873851113041e-16 4.963148562848045662e-17 1.974100774737208077e-15 0.000000000000000000e+00 0.000000000000000000e+00 0.000000000000000000e+00 0.000000000000000000e+00 2.619279257509095537e-15 4.737569414674953507e-16 0.000000000000000000e+00 -2.042741567359093075e-16 -1.877747289255635078e-15 4.581923873851113041e-16 4.963148562848045662e-17 1.974100774737208077e-15 0.000000000000000000e+00 0.000000000000000000e+00 0.000000000000000000e+00 0.000000000000000000e+00 1.138438161991705119e-15 -1.480269477688383521e-15 0.000000000000000000e+00 1.299064155427939383e-15 7.105576871325582296e-16
7.500000000000000000e+02 0.000000000000000000e+00 0.000000000000000000e+00 0.000000000000000000e+00 0.000000000000000000e+00 0.000000000000000000e+00 4.117748449408813460e-01 -2.165081613835085239e+00 -1.024051500703578199e+01 1.433649466026881392e+01 6.143736047925366428e+00 1.040327532182999981e+01 -2.347651063134176930e+00 -2.950071878829712002e+00 4.056387663969606372e+00 -3.987924527053348545e+00 4.475011421911166742e+00 5.095192550327464431e+00 5.170317688018035707e-01 1.124535375875519172e+01 1.240866936515695684e+00 -6.572760954388727761e+00 2.959487529294508867e-01 7.031087134911405911e+00 1.606356484586368039e+00 -2.466220578646101558e+00 3.789577278601137689e+00 -1.275423025846958991e+00 -6.999279830270192626e+00 1.811224481864341485e+00 -3.658041905042697106e-01 -1.733725520173058365e+00 5.925132228970670933e-01 -5.960481925614284915e-01 -2.802307974150230141e+00 1.916081162433642959e-01 -1.354362039100217435e-02 -7.122048258277188792e-02 5.120099749551548785e-01 1.366777689244951799e-01 -6.954508195681846638e-01 2.489954977596185781e+00 -8.419101350799352845e-01 3.414927133016965044e+00 6.154840806785827567e+00 -3.792618884834946691e+00 9.204615397569241297e-01 -1.247785620999513956e+00 -1.872520623127337913e+01 -6.080662363570206175e+00 -6.195669551657386975e+00 -2.352772728092958232e+01 8.270339682178934337e-01 3.354159150418286828e+01 9.132338616609190218e-01 7.879218940132037829e+00 4.656899719795899451e+00 0.000000000000000000e+00 0.000000000000000000e+00 0.000000000000000000e+00 4.704450219063663337e-17 1.685804461509476946e-15 0.000000000000000000e+00 -6.028456849150381147e-16 1.327123030559256435e-15 0.000000000000000000e+00 7.592643210862123076e-16 -2.363261420071636270e-16 5.139589182962305139e-16 0.000000000000000000e+00 0.000000000000000000e+00 0.000000000000000000e+00 0.000000000000000000e+00 -7.194181806977096009e-16 -1.186552494365234067e-15 0.000000000000000000e+00 1.148901921828742865e-16 2.187941157039002308e-15 7.592643210862123076e-16 -2.363261420071636270e-16 5.139589182962305139e-16 0.000000000000000000e+00 5.136768405579111998e-16 -2.614330266300712095e-15 0.000000000000000000e+00 7.279620697643675651e-16 7.565162688136843423e-16 0.000000000000000000e+00 -9.552266887215605266e-16 4.871010895050230007e-15 7.592643210862123076e-16 -2.363261420071636270e-16 5.139589182962305139e-16 0.000000000000000000e+00 0.000000000000000000e+00 0.000000000000000000e+00 0.000000000000000000e+00 -2.063274636580836285e-15 -1.002702369410931796e-15 0.000000000000000000e+00 -8.974067422375514170e-16 4.252858114911644216e-15 7.592643210862123076e-16 -2.363261420071636270e-16 5.139589182962305139e-16 0.000000000000000000e+00 0.000000000000000000e+00 0.000000000000000000e+00 0.000000000000000000e+00 -2.413113110404110280e-16 -3.475718096196462132e-15 0.000000000000000000e+00 -6.321497828917037221e-16 1.375933118059881885e-15 -7.749678717463101663e+00 2.625342703780780607e+00 -1.117689628131509627e-01 -3.566312183723525098e-01 -1.230781658786024479e+01 -3.506408161325620831e+00 3.752423165950151684e+01 3.321702751603703430e+00 -9.771887461724002577e+00 -2.927207124307628749e+00 5.977816177809634368e+00 -7.328915237287397133e+00 0.000000000000000000e+00 0.000000000000000000e+00 0.000000000000000000e+00 2.658985055182672128e-15 -2.845370008958032999e-15 0.000000000000000000e+00 -4.689986518732745390e-16 -1.688377148464337842e-15 0.000000000000000000e+00 4.348133192258683634e-16 8.819851088951811999e-17 1.935205098405192881e-15 0.000000000000000000e+00 0.000000000000000000e+00 0.000000000000000000e+00 0.000000000000000000e+00 5.126278150084734592e-16 1.550598215204449197e-16 0.000000000000000000e+00 6.538340318365287132e-16 3.425595079882275219e-16 4.348133192258683634e-16 8.819851088951811999e-17 1.935205098405192881e-15 0.000000000000000000e+00 1.558619704633513097e-15 1.932585471033889129e-15 0.000000000000000000e+00 5.535450557736233614e-16 -7.878279070248509394e-16 0.000000000000000000e+00 1.233390891122884480e-15 8.981763474192665943e-16 4.348133192258683634e-16 8.819851088951811999e-17 1.935205098405192881e-15 0.000000000000000000e+00 0.000000000000000000e+00 0.000000000000000000e+00 0.000000000000000000e+00 2.594086586260343087e-15 4.214537647342562174e-16 0.000000000000000000e+00 -2.074648020718831365e-16 -1.786404400034742612e-15 4.348133192258683634e-16 8.819851088951811999e-17 1.935205098405192881e-15 0.000000000000000000e+00 0.000000000000000000e+00 0.000000000000000000e+00 0.000000000000000000e+00 1.138289515953491139e-15 -1.470042528331244882e-15 0.000000000000000000e+00 1.320871079508201735e-15 7.062384669905687083e-16
